<?xml version="1.0" encoding="utf-8"?>
<!-- Generator: Adobe Illustrator 17.0.0, SVG Export Plug-In . SVG Version: 6.00 Build 0)  -->
<!DOCTYPE svg PUBLIC "-//W3C//DTD SVG 1.1//EN" "http://www.w3.org/Graphics/SVG/1.1/DTD/svg11.dtd">
<svg version="1.1" id="Layer_1" focusable="false" xmlns="http://www.w3.org/2000/svg" xmlns:xlink="http://www.w3.org/1999/xlink"
	 x="0px" y="0px" width="200px" height="200px" viewBox="0 0 200 200" enable-background="new 0 0 200 200" xml:space="preserve">
<path fill="#FFFFFF" d="M179.062,25.117C156.484,6.133,121.602,8.984,100,30.977C78.398,8.984,43.516,6.094,20.938,25.117
	c-29.375,24.727-25.078,65.039-4.141,86.406l68.516,69.805c3.906,3.984,9.141,6.211,14.688,6.211c5.586,0,10.781-2.188,14.688-6.172
	l68.516-69.805C204.102,90.195,208.477,49.883,179.062,25.117z M169.844,98.359l-68.516,69.805c-0.938,0.938-1.719,0.938-2.656,0
	L30.156,98.359c-14.258-14.531-17.148-42.031,2.852-58.867c15.195-12.773,38.633-10.859,53.32,4.102L100,57.539l13.672-13.945
	c14.766-15.039,38.203-16.875,53.32-4.141C186.953,56.289,183.984,83.945,169.844,98.359z"/>
</svg>
