<?xml version="1.0" encoding="utf-8"?>
<!-- Generator: Adobe Illustrator 17.0.0, SVG Export Plug-In . SVG Version: 6.00 Build 0)  -->
<!DOCTYPE svg PUBLIC "-//W3C//DTD SVG 1.1//EN" "http://www.w3.org/Graphics/SVG/1.1/DTD/svg11.dtd">
<svg version="1.1" id="Layer_1" focusable="false" xmlns="http://www.w3.org/2000/svg" xmlns:xlink="http://www.w3.org/1999/xlink"
	 x="0px" y="0px" width="200px" height="200px" viewBox="0 0 200 200" enable-background="new 0 0 200 200" xml:space="preserve">
<path fill="#FFFFFF" d="M189.653,14.479c-1.944-4.34-7.5-4.514-9.826-0.417c-10.764,18.715-30.035,30.382-52.049,30.382H100
	c-36.806,0-66.667,29.861-66.667,66.667c0,2.431,0.278,4.757,0.521,7.118c22.153-15.868,54.132-29.34,99.479-29.34
	c3.056,0,5.556,2.5,5.556,5.556s-2.5,5.556-5.556,5.556c-87.292,0-124.306,53.507-132.5,73.611
	c-2.292,5.66,0.417,12.118,6.076,14.444c5.694,2.361,12.153-0.382,14.514-6.007c0.521-1.25,7.257-16.632,24.965-31.458
	c11.25,15.243,32.639,29.792,60.729,26.806C161.632,173.438,200,124.549,200,64.688C200,47.257,196.25,29.201,189.653,14.479z"/>
</svg>
