<?xml version="1.0" encoding="utf-8"?>
<!-- Generator: Adobe Illustrator 17.0.0, SVG Export Plug-In . SVG Version: 6.00 Build 0)  -->
<!DOCTYPE svg PUBLIC "-//W3C//DTD SVG 1.1//EN" "http://www.w3.org/Graphics/SVG/1.1/DTD/svg11.dtd">
<svg version="1.1" id="Layer_1" focusable="false" xmlns="http://www.w3.org/2000/svg" xmlns:xlink="http://www.w3.org/1999/xlink"
	 x="0px" y="0px" width="200px" height="200px" viewBox="0 0 200 200" enable-background="new 0 0 200 200" xml:space="preserve">
<path fill="#FFFFFF" d="M193.047,86.68l-23.359-15.82l5.352-27.734c1.016-5.156-0.625-10.469-4.336-14.219
	c-3.75-3.711-9.063-5.352-14.141-4.336l-27.695,5.352L113.086,6.523c-5.898-8.711-20.273-8.711-26.172,0L71.133,29.922L43.477,24.57
	c-5.195-0.977-10.469,0.625-14.18,4.375s-5.352,9.023-4.336,14.18l5.352,27.734L6.953,86.68C2.578,89.648,0,94.531,0,99.805
	s2.617,10.156,6.953,13.086l23.359,15.82l-5.352,27.734c-1.016,5.156,0.625,10.469,4.336,14.18s8.945,5.352,14.18,4.336
	l27.656-5.352l15.781,23.398C89.844,197.383,94.766,200,100,200s10.156-2.617,13.086-6.953l15.781-23.398L156.562,175
	c5.234,1.055,10.469-0.625,14.18-4.336s5.313-9.023,4.336-14.18l-5.352-27.734l23.359-15.82c4.336-2.93,6.953-7.852,6.953-13.086
	C200,94.531,197.422,89.648,193.047,86.68L193.047,86.68z M148.945,120.117l6.875,35.625l-35.547-6.875L100,178.906l-20.273-30.078
	l-35.508,6.875l6.875-35.625l-30-20.312l30-20.312l-6.875-35.625l35.547,6.875l20.234-30l20.273,30.039l35.547-6.875l-6.875,35.586
	l30,20.312L148.945,120.117L148.945,120.117z M100,59.375c-22.383,0-40.625,18.242-40.625,40.625S77.617,140.625,100,140.625
	s40.625-18.242,40.625-40.625S122.383,59.375,100,59.375z M100,121.875c-12.07,0-21.875-9.805-21.875-21.875
	S87.93,78.125,100,78.125S121.875,87.93,121.875,100S112.07,121.875,100,121.875z"/>
</svg>
