<?xml version="1.0" encoding="utf-8"?>
<!-- Generator: Adobe Illustrator 17.0.0, SVG Export Plug-In . SVG Version: 6.00 Build 0)  -->
<!DOCTYPE svg PUBLIC "-//W3C//DTD SVG 1.1//EN" "http://www.w3.org/Graphics/SVG/1.1/DTD/svg11.dtd">
<svg version="1.1" id="Layer_1" focusable="false" xmlns="http://www.w3.org/2000/svg" xmlns:xlink="http://www.w3.org/1999/xlink"
	 x="0px" y="0px" width="200px" height="200px" viewBox="0 0 200 200" enable-background="new 0 0 200 200" xml:space="preserve">
<path fill="#FFFFFF" d="M182.137,111.988c3.426-5.801,5.363-11.988,5.363-19.469c0-17.193-14.538-33.43-33.523-33.43h-14.25
	c1.922-5.004,3.457-10.988,3.457-18.18c0-28.435-14.723-40.91-37.215-40.91C81.904,0,83.276,37.083,77.937,42.422
	C69.052,51.307,58.557,68.378,51.078,75H12.5C5.596,75,0,80.596,0,87.5v93.75c0,6.904,5.596,12.5,12.5,12.5h25
	c5.818,0,10.706-3.974,12.101-9.355c17.386,0.391,29.32,15.602,69.454,15.602c2.82,0,5.945,0.004,8.68,0.004
	c30.124,0,43.745-15.4,44.117-37.238c5.203-7.197,7.929-16.845,6.773-26.168C182.474,129.386,183.962,120.835,182.137,111.988z
	 M158.016,133.016c4.906,8.254,0.492,19.301-5.445,22.488c3.008,19.055-6.878,25.742-20.75,25.742h-14.773
	c-27.984,0-46.105-14.773-67.047-14.773V93.75h4.266c11.078,0,26.555-27.691,36.93-38.07c11.078-11.078,7.387-29.543,14.773-36.93
	c18.465,0,18.465,12.883,18.465,22.16c0,15.301-11.078,22.156-11.078,36.93h40.621c8.246,0,14.738,7.387,14.773,14.773
	c0.035,7.383-5.008,14.77-8.699,14.77C165.32,113.068,166.446,125.053,158.016,133.016L158.016,133.016z M34.375,168.75
	c0,5.178-4.197,9.375-9.375,9.375s-9.375-4.197-9.375-9.375s4.197-9.375,9.375-9.375S34.375,163.572,34.375,168.75z"/>
</svg>
